:version 1.10
:name ASF
:units
  mass 1
  length 1
  angle deg
:documentation
  ASF file generated by Kaydara
:root
  axis xyz
  order  tx ty tz rx ry rz
  position 0 0 0
  orientation 0 0 0
:bonedata
  begin
    id 1
    name RightUpLegDummy
    direction -0.718183 -0.695806 0.00816078
    length 4.904
    axis 0 0 0 xyz
  end
  begin
    id 2
    name RightUpLeg
    direction 3.53373e-006 -0.995788 0.0916898
    length 17.4976
    axis -3.49089 -0.000906625 0.000286804 xyz
    dof rx ry rz
  end
  begin
    id 3
    name RightLeg
    direction 0.00371092 -0.995096 -0.0988419
    length 16.5821
    axis 3.68512 0.0193738 -0.131023 xyz
    dof rx ry rz
  end
  begin
    id 4
    name RightFoot
    direction 0.00079151 -0.46099 0.887405
    length 3.77069
    axis 4.81691e-005 -0.120479 -0.188788 xyz
    dof rx ry rz
  end
  begin
    id 5
    name RightToes
    direction 0 0 0
    length 0
    axis 0 0 0 xyz
    dof rx ry rz
  end
  begin
    id 6
    name SpineDummy
    direction 8.3039e-015 1 4.57515e-016
    length 4.6813
    axis 0 0 0 xyz
  end
  begin
    id 7
    name Spine
    direction -3.15643e-008 0.999988 0.00495137
    length 10.1015
    axis -0.001389 0.000121418 2.40972e-006 xyz
    dof rx ry rz
  end
  begin
    id 8
    name Spine1
    direction 0 0 0
    length 0
    axis -0.001389 0.000121451 1.30017e-006 xyz
    dof rx ry rz
  end
  begin
    id 9
    name HEadDummy
    direction -1.99912e-008 0.999999 0.00127422
    length 3.43865
    axis -0.001389 0.000121451 1.30017e-006 xyz
  end
  begin
    id 10
    name HEad
    direction 0 0 0
    length 0
    axis 0 0 0 xyz
    dof rx ry rz
  end
  begin
    id 11
    name LeftShoulder1Dummy
    direction 0.998891 -0.0402509 -0.0244456
    length 3.5433
    axis -0.001389 0.000121451 1.30017e-006 xyz
  end
  begin
    id 12
    name LeftShoulder1
    direction 0.99951 -0.000327763 0.0313091
    length 4.05031
    axis -0.001389 0.000121451 1.30017e-006 xyz
    dof rx ry rz
  end
  begin
    id 13
    name LeftArm
    direction 0.998561 -0.00100056 -0.0536182
    length 10.3537
    axis -23.1894 0.134784 0.967509 xyz
    dof rx ry rz
  end
  begin
    id 14
    name LeftForeArm
    direction 0.998903 0.00866432 0.046012
    length 8.70632
    axis -9.91835 -0.06569 -0.177794 xyz
    dof rx ry rz
  end
  begin
    id 15
    name LeftHand
    direction 0 0 0
    length 0
    axis 0 0 0 xyz
    dof rx ry rz
  end
  begin
    id 16
    name RightShoulderDummy
    direction -0.998891 -0.0402509 -0.0244414
    length 3.5433
    axis -0.001389 0.000121451 1.30017e-006 xyz
  end
  begin
    id 17
    name RightShoulder
    direction -0.99951 -0.000327807 0.0313133
    length 4.05031
    axis 0.215806 0.000203643 -0.0068026 xyz
    dof rx ry rz
  end
  begin
    id 18
    name RightArm
    direction -0.998573 -0.000999564 -0.053403
    length 10.3947
    axis -23.2009 -0.134239 -0.964101 xyz
    dof rx ry rz
  end
  begin
    id 19
    name RightForeArm
    direction -0.998898 0.00868028 0.0461306
    length 8.68355
    axis -9.92322 0.0658061 0.178868 xyz
    dof rx ry rz
  end
  begin
    id 20
    name RightHand
    direction 0 0 0
    length 0
    axis 0 0 0 xyz
    dof rx ry rz
  end
  begin
    id 21
    name LeftUpLegDummy
    direction 0.718183 -0.695806 0.00816078
    length 4.904
    axis 0 0 0 xyz
  end
  begin
    id 22
    name LeftUpLeg
    direction -6.81752e-006 -0.995793 0.0916337
    length 17.4976
    axis -3.48766 0.00143442 -0.000524262 xyz
    dof rx ry rz
  end
  begin
    id 23
    name LeftLeg
    direction -0.00601358 -0.995091 -0.0987824
    length 16.5821
    axis 3.68178 -0.00654042 -0.000285133 xyz
    dof rx ry rz
  end
  begin
    id 24
    name LeftFoot
    direction -0.00417578 -0.460984 0.887399
    length 3.77069
    axis 1.87233e-006 4.66016e-005 -8.6538e-006 xyz
    dof rx ry rz
  end
  begin
    id 25
    name LeftToes
    direction 0 0 0
    length 0
    axis 0 0 0 xyz
    dof rx ry rz
  end
:hierarchy
  begin
    root RightUpLegDummy SpineDummy LeftUpLegDummy
    RightUpLegDummy RightUpLeg
    RightUpLeg RightLeg
    RightLeg RightFoot
    RightFoot RightToes
    SpineDummy Spine
    Spine Spine1
    Spine1 HEadDummy LeftShoulder1Dummy RightShoulderDummy
    HEadDummy HEad
    LeftShoulder1Dummy LeftShoulder1
    LeftShoulder1 LeftArm
    LeftArm LeftForeArm
    LeftForeArm LeftHand
    RightShoulderDummy RightShoulder
    RightShoulder RightArm
    RightArm RightForeArm
    RightForeArm RightHand
    LeftUpLegDummy LeftUpLeg
    LeftUpLeg LeftLeg
    LeftLeg LeftFoot
    LeftFoot LeftToes
  end

:SAMPLES-PER-SECOND 30
:FULLY-SPECIFIED
:DEGREES
657
root  5.19497 35.0688 16.3516 22.7224 85.2379 13.7362
RightUpLeg  -48.8276 -17.7653 3.80162
RightLeg  57.9848 -5.83392 -10.435
RightFoot  -14.842 -0.0972151 0.0610792
RightToes  0.000481921 0.542163 -0.142578
Spine  56.7157 -1.76776 5.55443
Spine1  -10.8516 0.402683 0.951163
HEad  -43.3259 3.94211 0.186084
LeftShoulder1  7.98404 -14.9278 -37.1916
LeftArm  2.6135 -24.0359 -43.3624
LeftForeArm  -175.512 -62.0198 -162.774
LeftHand  -0.25398 0.0180481 5.50724
RightShoulder  4.55952 10.9592 25.4211
RightArm  -0.0222527 13.4394 47.37
RightForeArm  162.966 62.3553 160.458
RightHand  -1.50642 4.00777 -18.7839
LeftUpLeg  -48.4874 13.8035 -8.67696
LeftLeg  55.0172 7.76584 12.2392
LeftFoot  -15.2349 0.131057 1.17127
LeftToes  1.06245e-005 4.65868e-005 -8.65517e-006
658
root  5.24861 35.0301 16.5674 23.3835 85.8266 14.0379
RightUpLeg  -50.5727 -18.8865 4.21523
RightLeg  60.0862 -4.62291 -9.12991
RightFoot  -12.3358 -0.0768397 0.809853
RightToes  0.000481921 0.542163 -0.142578
Spine  56.403 -2.01802 5.5856
Spine1  -11.3056 0.211184 0.806738
HEad  -43.0973 3.89136 -0.411885
LeftShoulder1  8.01498 -14.931 -37.3467
LeftArm  2.10151 -22.9552 -42.8451
LeftForeArm  -175.371 -61.8546 -162.902
LeftHand  -0.25398 0.0180481 5.50724
RightShoulder  4.58317 10.9007 25.7261
RightArm  0.793717 12.7652 47.5271
RightForeArm  162.63 61.8387 160.823
RightHand  -1.44199 3.75013 -18.4867
LeftUpLeg  -48.8925 15.1376 -8.86935
LeftLeg  54.7644 6.64983 10.4983
LeftFoot  -15.5482 0.135847 1.15671
LeftToes  1.06245e-005 4.65868e-005 -8.65517e-006
659
root  5.25702 34.9907 16.7524 16.7963 86.2144 7.3588
RightUpLeg  -52.5687 -19.4529 3.93838
RightLeg  62.9267 -2.0723 -4.93969
RightFoot  -7.82857 -0.179008 3.5328
RightToes  0.000481921 0.542163 -0.142578
Spine  56.274 -2.08995 5.65931
Spine1  -12.0604 0.171113 1.12808
HEad  -42.9154 4.08598 -0.7437
LeftShoulder1  8.0646 -14.9263 -37.6173
LeftArm  1.28624 -21.8719 -42.5262
LeftForeArm  -175.638 -61.6886 -162.992
LeftHand  -0.25398 0.0180481 5.50724
RightShoulder  4.62071 10.9629 25.8539
RightArm  1.71041 12.4042 47.3116
RightForeArm  162.912 61.1759 161.343
RightHand  -1.36726 3.53896 -17.9554
LeftUpLeg  -49.1742 15.2655 -7.9408
LeftLeg  55.1716 6.42767 10.3293
LeftFoot  -15.8021 0.131679 0.944896
LeftToes  1.06245e-005 4.65868e-005 -8.65517e-006
660
root  5.24469 34.902 16.9821 9.91206 86.1539 0.815125
RightUpLeg  -53.839 -18.9031 1.87406
RightLeg  65.7589 1.13066 2.113
RightFoot  -3.56625 -0.641731 9.1159
RightToes  0.000481921 0.542163 -0.142578
Spine  56.2562 -1.85109 5.24554
Spine1  -12.2453 0.300075 1.47641
HEad  -43.0641 4.40696 -0.594583
LeftShoulder1  8.07687 -14.8802 -37.7875
LeftArm  0.561981 -21.6199 -42.3509
LeftForeArm  -176.182 -61.8045 -162.863
LeftHand  -0.25398 0.0180481 5.50724
RightShoulder  4.63814 11.0223 25.8426
RightArm  2.40577 12.4704 47.2059
RightForeArm  163.442 60.777 161.679
RightHand  -1.34491 3.4828 -17.7765
LeftUpLeg  -49.2779 14.8422 -6.5856
LeftLeg  56.2879 6.50542 10.8861
LeftFoot  -15.7925 0.0955435 0.0207126
LeftToes  1.06245e-005 4.65868e-005 -8.65517e-006
661
root  5.25861 34.7532 17.2871 8.86742 86.1231 0.246979
RightUpLeg  -54.3498 -17.7716 -1.39397
RightLeg  68.1952 2.81202 6.95459
RightFoot  -2.6268 -1.06393 13.8356
RightToes  0.000481921 0.542163 -0.142578
Spine  56.3161 -1.68907 4.58418
Spine1  -11.8567 0.34616 1.49197
HEad  -43.2542 4.6956 -0.247826
LeftShoulder1  8.03365 -14.8059 -37.7322
LeftArm  0.15743 -21.8945 -42.176
LeftForeArm  -176.547 -62.1116 -162.614
LeftHand  -0.25398 0.0180481 5.50724
RightShoulder  4.63752 10.9807 25.934
RightArm  2.79374 12.494 47.4234
RightForeArm  163.881 60.9035 161.63
RightHand  -1.39441 3.68374 -18.0218
LeftUpLeg  -49.2039 14.4493 -5.68245
LeftLeg  57.3165 6.43318 11.2039
LeftFoot  -15.8991 0.0687336 -0.668968
LeftToes  1.06245e-005 4.65868e-005 -8.65517e-006
662
root  5.28499 34.6216 17.6205 6.79047 86.2931 -1.37674
RightUpLeg  -54.2307 -16.7505 -4.28148
RightLeg  69.4905 1.75575 4.38845
RightFoot  -5.22407 -0.756672 13.1251
RightToes  0.000481921 0.542163 -0.142578
Spine  56.3842 -1.82768 4.5272
Spine1  -11.8128 0.203218 1.49016
HEad  -43.2117 4.80885 -0.139342
LeftShoulder1  7.99178 -14.75 -37.6408
LeftArm  0.0369214 -22.0133 -41.852
LeftForeArm  -176.609 -62.2472 -162.512
LeftHand  -0.25398 0.0180481 5.50724
RightShoulder  4.66239 10.9163 26.2622
RightArm  2.9044 12.0478 47.6405
RightForeArm  164.291 61.2609 161.412
RightHand  -1.44645 3.9696 -18.1318
LeftUpLeg  -48.9866 14.1784 -4.78823
LeftLeg  57.9941 6.33909 11.3452
LeftFoot  -16.1839 0.0590265 -0.898702
LeftToes  1.06245e-005 4.65868e-005 -8.65517e-006
663
root  5.30025 34.511 17.976 3.1319 86.4046 -4.6796
RightUpLeg  -53.3108 -15.7994 -6.47867
RightLeg  68.3918 -1.34489 -4.34482
RightFoot  -8.51283 -0.255077 7.9583
RightToes  0.000481921 0.542163 -0.142578
Spine  56.4646 -1.99884 4.95053
Spine1  -12.1556 0.0406698 1.76931
HEad  -43.2406 4.69187 -0.421411
LeftShoulder1  7.99159 -14.7293 -37.6879
LeftArm  0.134138 -21.9596 -41.4704
LeftForeArm  -176.593 -62.1361 -162.593
LeftHand  -0.25398 0.0180481 5.50724
RightShoulder  4.72253 10.9286 26.6661
RightArm  2.72491 11.2706 47.5674
RightForeArm  164.64 61.3806 161.358
RightHand  -1.43676 4.0416 -17.8822
LeftUpLeg  -48.966 14.2287 -3.7198
LeftLeg  58.774 6.15185 11.3725
LeftFoot  -16.311 0.0382944 -1.3743
LeftToes  1.06245e-005 4.65868e-005 -8.65517e-006
